Coordinates
version=1
nRows=6
nColumns=63
inDegrees=yes

Units are S.I. units (second, meters, Newtons, ...)
If the header above contains a line with 'inDegrees', this indicates whether rotational values are in degrees (yes) or radians (no).

endheader
time	pelvis_tilt	pelvis_list	pelvis_rotation	pelvis_tx	pelvis_ty	pelvis_tz	hip_flexion_r	hip_adduction_r	hip_rotation_r	knee_angle_r	knee_angle_r_beta	ankle_angle_r	subtalar_angle_r	mtp_angle_r	hip_flexion_l	hip_adduction_l	hip_rotation_l	knee_angle_l	knee_angle_l_beta	ankle_angle_l	subtalar_angle_l	mtp_angle_l	L5_S1_Flex_Ext	L5_S1_Lat_Bending	L5_S1_axial_rotation	L4_L5_Flex_Ext	L4_L5_Lat_Bending	L4_L5_axial_rotation	L3_L4_Flex_Ext	L3_L4_Lat_Bending	L3_L4_axial_rotation	L2_L3_Flex_Ext	L2_L3_Lat_Bending	L2_L3_axial_rotation	L1_L2_Flex_Ext	L1_L2_Lat_Bending	L1_L2_axial_rotation	L1_T12_Flex_Ext	L1_T12_Lat_Bending	L1_T12_axial_rotation	Abs_r3	Abs_r2	Abs_r1	Abs_t1	Abs_t2	neck_flexion	neck_bending	neck_rotation	arm_flex_r	arm_add_r	arm_rot_r	elbow_flex_r	pro_sup_r	wrist_flex_r	wrist_dev_r	arm_flex_l	arm_add_l	arm_rot_l	elbow_flex_l	pro_sup_l	wrist_flex_l	wrist_dev_l
      3.15254237	     -1.27583935	    -12.15743836	     91.17184421	      0.14055568	      0.90091660	      0.42748109	     11.12567843	      6.04344360	      4.39586370	      0.54314485	      0.00947967	     19.48264926	    -15.98267219	      0.00000000	     15.56208989	     -4.29408621	     -2.72180450	      8.51903223	      0.14868516	     30.38042643	      7.44328232	      0.00000000	     -0.08230167	      0.21977193	     -0.19820237	     -0.15284244	      0.29229667	     -0.21059002	     -0.13521342	      0.53435347	     -0.21059002	     -0.09406258	      0.53435347	     -0.17342708	     -0.07642533	      0.44815892	     -0.16103943	     -0.04702718	      0.34042672	     -0.14865178	     -0.58787263	      2.48610404	     -1.10234215	      0.00000000	      0.00000000	     19.21088325	     -5.07281385	     -9.42678220	      8.23931790	    -18.06181485	     56.75843431	     35.90592432	     88.31937117	     -5.52721272	      8.40927062	      9.63253443	    -14.64112160	     55.30460070	     36.50793064	     76.52682843	    -10.79040892	     -2.50977485
      3.16949153	     -1.30044922	    -11.75514737	     91.88573674	      0.14081375	      0.90166274	      0.42746801	     10.68990069	      5.95262499	      4.05266654	      0.52143942	      0.00910083	     19.33645123	    -16.10137711	      0.00000000	     15.46396507	     -4.21272295	     -2.47108068	      8.99576887	      0.15700579	     30.44454767	      7.46014394	      0.00000000	     -0.08737320	      0.16418328	     -0.18977524	     -0.16226078	      0.21836376	     -0.20163619	     -0.14354544	      0.39919522	     -0.20163619	     -0.09985883	      0.39919522	     -0.16605333	     -0.08113476	      0.33480254	     -0.15419238	     -0.04992505	      0.25431990	     -0.14233143	     -0.62409806	      1.85727408	     -1.05547293	      0.00000000	      0.00000000	     19.87745140	     -6.54562406	     -9.65823879	      8.18122621	    -18.16739725	     55.91470432	     36.65442025	     88.24120116	     -6.58544820	      7.65370683	      9.86033249	    -15.40720932	     54.21252469	     37.91064514	     75.85596802	    -10.20888066	     -1.98027454
      3.18644068	     -1.46450987	    -11.49245473	     92.25231174	      0.14122625	      0.90220276	      0.42765632	     10.40688606	      5.78199781	      3.73574118	      0.50745100	      0.00885669	     18.89720539	    -16.16807828	      0.00000000	     15.32900772	     -4.02907791	     -2.49077477	      9.15463649	      0.15977855	     30.51454568	      7.43536030	      0.00000000	     -0.07073815	      0.10633749	     -0.16769156	     -0.13136781	      0.14142886	     -0.17817228	     -0.11621570	      0.25854896	     -0.17817228	     -0.08084663	      0.25854896	     -0.14673011	     -0.06568744	      0.21684340	     -0.13624939	     -0.04041978	      0.16471677	     -0.12576867	     -0.50527550	      1.20291091	     -0.93265014	      0.00000000	      0.00000000	     20.43182820	     -7.86147174	     -9.33835825	      8.33460652	    -18.37293329	     55.56415464	     37.53745075	     88.11088498	     -6.88072180	      7.03596599	     10.25453628	    -16.27560761	     53.97795120	     39.24294455	     76.14534570	    -10.17038652	     -2.11130621
      3.20338983	     -1.71277428	    -11.23846862	     92.88929826	      0.14114665	      0.90268723	      0.42841327	     10.14273902	      5.46229076	      3.40431500	      0.51276369	      0.00894941	     18.92682493	    -16.18492220	      0.00000000	     15.36131981	     -3.70143299	     -2.58956880	      9.44668778	      0.16487581	     30.62338844	      7.86806009	      0.00000000	     -0.07756050	      0.04915424	     -0.25350520	     -0.14403761	      0.06537513	     -0.26934927	     -0.12742415	      0.11951361	     -0.26934927	     -0.08864390	      0.11951361	     -0.22181705	     -0.07202268	      0.10023532	     -0.20597297	     -0.04431807	      0.07613991	     -0.19012890	     -0.55400690	      0.55604254	     -1.40991985	      0.00000000	      0.00000000	     21.74938834	     -9.60086709	     -8.93100167	      8.78657116	    -18.30173326	     55.86266500	     37.84883060	     87.80232697	     -8.63931221	      5.18439640	      9.72745421	    -16.98213085	     49.54141583	     41.85413215	     83.57762479	    -10.24144949	      1.59196519
      3.22033898	     -1.96362773	    -10.93503976	     93.20057708	      0.14114154	      0.90343135	      0.42916916	      9.82656513	      5.18853418	      3.14876077	      0.51380522	      0.00896759	     18.71569792	    -16.16579168	      0.00000000	     15.15448633	     -3.40285854	     -2.67427370	      9.45130057	      0.16495631	     30.64221735	      8.09976897	      0.00000000	     -0.07510251	      0.00465958	     -0.26184564	     -0.13947286	      0.00619724	     -0.27821100	     -0.12338591	      0.01132930	     -0.27821100	     -0.08583465	      0.01132930	     -0.22911494	     -0.06974019	      0.00950181	     -0.21274959	     -0.04291357	      0.00721769	     -0.19638423	     -0.53644969	      0.05271008	     -1.45630692	      0.00000000	      0.00000000	     22.26574626	    -10.55511624	     -8.14344418	      9.44570526	    -18.45715714	     57.09132144	     38.24255373	     87.77825935	    -10.13472939	      3.59472375	     10.34442905	    -17.76753285	     49.56424368	     43.55556415	     86.78584498	    -12.32392129	      2.52478469
      3.23728814	     -2.27466230	    -10.62669646	     93.36938075	      0.14113154	      0.90430225	      0.42990799	      9.51208865	      4.86753425	      2.93345822	      0.54808135	      0.00956582	     18.64392803	    -16.00737737	      0.00000000	     14.84472518	     -3.07153642	     -2.94656013	      9.31804917	      0.16263064	     30.60756990	      8.60742827	      0.00000000	     -0.05489192	     -0.04372675	     -0.26838481	     -0.10193979	     -0.05815657	     -0.28515886	     -0.09018194	     -0.10631721	     -0.28515886	     -0.06273598	     -0.10631721	     -0.23483671	     -0.05097264	     -0.08916758	     -0.21806266	     -0.03136524	     -0.06773273	     -0.20128861	     -0.39208750	     -0.49464571	     -1.49267581	      0.00000000	      0.00000000	     22.26500919	    -10.61302190	     -7.24574481	     10.78069787	    -18.61040905	     60.80652721	     38.32821649	     87.79343046	    -12.74604048	      1.84341892	     11.20646200	    -18.59152863	     50.71889526	     45.09944598	     88.21568183	    -15.76772335	      2.85910643
